<?xml version="1.0" encoding="utf-8"?>
<!-- Generator: Adobe Illustrator 14.0.0, SVG Export Plug-In . SVG Version: 6.00 Build 43363)  -->
<!DOCTYPE svg PUBLIC "-//W3C//DTD SVG 1.1//EN" "http://www.w3.org/Graphics/SVG/1.1/DTD/svg11.dtd">
<svg version="1.1" id="レイヤー_1" xmlns="http://www.w3.org/2000/svg" xmlns:xlink="http://www.w3.org/1999/xlink" x="0px"
	 y="0px" width="749.556px" height="79.64px" viewBox="0 0 749.556 79.64" enable-background="new 0 0 749.556 79.64"
	 xml:space="preserve">
<rect fill="#49A500" width="749.556" height="79.64"/>
<g>
	<g>
		<rect x="37.014" y="10.641" fill="#008239" width="679.748" height="60.312"/>
	</g>
	<g>
		<rect x="34.671" y="8.3" fill="#FFFFFF" width="679.748" height="60.31"/>
	</g>
</g>
<g>
	<g>
		<path fill="#49A500" d="M179.598,31.523c-0.063,0.198-0.196,0.395-0.394,0.526c-0.46,9.974-1.443,15.913-2.722,17.947
			c-1.149,1.805-2.89,2.625-4.955,2.625c-1.542,0-3.511-0.198-5.709-0.655c0.032-1.117-0.132-2.987-0.295-4.135
			c2.001,0.459,4.362,0.754,5.183,0.754c0.984,0,1.675-0.264,2.198-1.312c0.755-1.511,1.541-6.399,1.805-12.632h-8.072
			c-1.542,6.725-4.232,13.124-10.269,18.046c-0.755-0.722-2.331-1.903-3.38-2.527c5.446-4.199,8.041-9.843,9.252-15.519h-7.972
			v-3.873h8.761c0.328-2.264,0.394-4.101,0.524-6.627l5.38,0.459c-0.063,0.361-0.394,0.623-0.983,0.721
			c-0.197,2.069-0.264,3.545-0.559,5.479h8.4l0.788-0.328L179.598,31.523z"/>
		<path fill="#49A500" d="M190.571,26.109c3.281,1.017,7.219,2.757,9.614,4.332l-2.167,3.741c-2.36-1.576-6.234-3.381-9.383-4.495
			L190.571,26.109z M189.457,48.321c11.057-3.41,18.668-9.843,22.475-18.864c1.213,0.984,2.625,1.771,3.839,2.428
			c-4.069,8.958-11.909,15.946-22.771,19.784c-0.067,0.361-0.264,0.723-0.559,0.854L189.457,48.321z"/>
		<path fill="#49A500" d="M247.546,29.751c-0.067,0.23-0.264,0.428-0.525,0.592c-1.247,3.806-2.855,7.578-4.561,10.271
			c1.148,0.688,2.657,1.672,3.609,2.329l-2.396,4.036c-0.95-0.786-2.56-1.903-3.739-2.658c-2.886,3.708-6.63,6.628-11.058,8.794
			c-0.624-0.951-2.197-2.494-3.247-3.117c4.167-1.837,7.84-4.527,10.695-7.842c-1.738-1.05-3.739-2.067-5.544-2.788l2.265-3.216
			c1.805,0.657,3.837,1.542,5.741,2.527c1.277-2.003,2.295-4.167,3.018-6.431h-9.056c-2.035,3.149-4.561,6.168-7.053,8.235
			c-0.791-0.756-2.396-1.969-3.414-2.592c4.626-3.379,8.037-8.694,9.974-14.208l5.283,1.148c-0.131,0.361-0.49,0.559-1.084,0.525
			c-0.327,0.886-0.916,2.1-1.442,3.084h8.76l0.689-0.196L247.546,29.751z"/>
		<path fill="#49A500" d="M259.435,26.109c3.282,1.017,7.219,2.757,9.614,4.332l-2.167,3.741c-2.359-1.576-6.234-3.381-9.382-4.495
			L259.435,26.109z M258.32,48.321c11.057-3.41,18.668-9.843,22.475-18.864c1.213,0.984,2.625,1.771,3.838,2.428
			c-4.067,8.958-11.907,15.946-22.769,19.784c-0.065,0.361-0.263,0.723-0.559,0.854L258.32,48.321z"/>
		<path fill="#49A500" d="M294.296,34.115v-2.526c-0.689,0.657-1.38,1.28-2.067,1.805c-0.723-0.722-2.101-1.838-2.985-2.428
			c2.656-1.804,5.28-4.988,6.724-8.039l4.365,1.51c-0.099,0.262-0.393,0.394-0.854,0.361c-0.294,0.523-0.621,1.082-0.982,1.607
			h19.917v3.479h-3.118v4.231h4.329v3.512h-4.329v4.2h3.84v3.511h-28.776v-3.511h3.938v-4.2h-4.464v-3.512H294.296z M297.053,46.978
			c-0.755,2.526-2.167,5.218-3.774,6.956l-3.771-1.542c1.474-1.377,2.953-3.938,3.708-6.332L297.053,46.978z M297.772,29.884v4.231
			h2.396v-4.231H297.772z M297.772,37.627v4.2h2.396v-4.2H297.772z M299.775,53.541c0-1.609-0.262-4.298-0.624-6.333l3.642-0.428
			c0.427,2.002,0.822,4.626,0.854,6.202L299.775,53.541z M305.877,29.884h-2.427v4.231h2.427V29.884z M305.877,37.627h-2.427v4.2
			h2.427V37.627z M307.419,53.572c-0.196-1.607-0.952-4.265-1.704-6.299l3.705-0.624c0.82,1.936,1.644,4.527,1.938,6.169
			L307.419,53.572z M311.685,34.115v-4.231h-2.526v4.231H311.685z M311.685,41.827v-4.2h-2.526v4.2H311.685z M316.214,53.9
			c-0.722-1.771-2.462-4.69-3.939-6.792l3.774-1.213c1.509,2.033,3.349,4.823,4.199,6.66L316.214,53.9z"/>
		<path fill="#49A500" d="M333.027,38.513c1.115,0.885,4.329,3.905,5.054,4.626l-2.23,3.182c-0.625-0.952-1.743-2.396-2.823-3.707
			v11.254h-3.775V43.533c-1.181,2.56-2.559,4.955-4.004,6.594c-0.357-1.181-1.244-2.918-1.867-4.002
			c1.903-1.968,3.871-5.281,5.085-8.268h-4.396v-3.674h5.183V22.927l4.627,0.264c-0.032,0.327-0.263,0.491-0.852,0.59v10.401h4.757
			v3.674h-4.757V38.513z M326.955,25.026c0.953,2.331,1.676,5.283,1.903,7.285l-3.215,0.886c-0.132-1.969-0.852-5.052-1.705-7.383
			L326.955,25.026z M339.326,26.109c-0.098,0.23-0.393,0.394-0.853,0.394c-0.626,2.066-1.773,4.988-2.726,6.824
			c-0.85-0.294-1.869-0.688-2.721-0.983c0.819-2.002,1.771-5.151,2.198-7.417L339.326,26.109z M354.714,44.813L350.58,45.6v8.3
			h-3.873v-7.579l-8.233,1.575l-0.657-3.74l8.891-1.64V23.092l4.727,0.261c-0.035,0.295-0.264,0.525-0.854,0.624v17.817l3.512-0.657
			L354.714,44.813z M341.097,33.689c1.773,1.444,3.972,3.543,4.954,5.054c-2.854,2.165-2.918,2.229-2.953,2.263
			c-0.916-1.477-2.985-3.707-4.756-5.282L341.097,33.689z M342.083,25.389c1.607,1.41,3.477,3.411,4.298,4.855l-3.019,2.133
			c-0.755-1.444-2.562-3.577-4.103-5.054L342.083,25.389z"/>
		<path fill="#49A500" d="M371.954,43.86c-0.031,0.296-0.326,0.524-0.853,0.59c-0.821,4.528-2.231,7.811-10.861,9.549
			c-0.359-1.017-1.344-2.657-2.134-3.511c7.481-1.148,8.434-3.314,8.926-7.087L371.954,43.86z M379.106,48.684
			c0,1.083,0.198,1.247,1.444,1.247h3.447c1.146,0,1.343-0.591,1.508-4.461c0.82,0.655,2.56,1.311,3.61,1.574
			c-0.429,5.25-1.478,6.596-4.759,6.596h-4.365c-3.938,0-4.888-1.181-4.888-4.922v-6.103h-12.272V23.978h21.655v18.636h-5.381
			V48.684z M366.639,27.226v2.034h13.848v-2.034H366.639z M366.639,32.246v2.067h13.848v-2.067H366.639z M366.639,37.331v2.1h13.848
			v-2.1H366.639z"/>
		<path fill="#49A500" d="M401.17,37.002c0.952,0.887,3.646,3.873,4.234,4.661l-2.266,3.052c-0.392-0.92-1.179-2.232-1.969-3.512
			V53.9h-3.772V42.188c-0.983,2.527-2.1,4.888-3.314,6.529c-0.326-1.117-1.215-2.79-1.805-3.773c1.708-2.166,3.38-5.742,4.431-8.924
			h-3.939V32.41h4.628v-3.807c-1.246,0.36-2.494,0.656-3.707,0.919c-0.198-0.789-0.724-2.034-1.182-2.789
			c3.675-0.919,7.677-2.33,10.04-3.807l2.955,2.757v-0.427h6.461v-2.33l4.693,0.264c-0.034,0.327-0.296,0.525-0.887,0.624v1.442
			h6.464v2.559h-6.464v1.148h5.381v2.429h-5.381v1.181h7.68v2.79h-18.703v-2.79h7.217v-1.181h-5.217v-2.429h5.217v-1.148h-6.461
			v-1.969c-0.231,0.132-0.43,0.132-0.756,0.132c-1.018,0.492-2.233,0.986-3.578,1.477v4.955h3.217v3.609h-3.217V37.002z
			 M421.351,48.816h-2.529c1.84,1.082,3.906,2.295,5.119,3.181l-3.675,1.903c-1.18-0.983-3.347-2.558-5.185-3.674l1.972-1.409
			h-6.139l2.135,1.377c-0.099,0.13-0.329,0.196-0.59,0.228c-1.443,1.28-4.494,2.723-7.089,3.446
			c-0.523-0.723-1.509-1.871-2.264-2.56c2.002-0.558,4.266-1.542,5.776-2.492h-2.167V36.413h14.635V48.816z M410.358,38.743v1.212
			h7.153v-1.212H410.358z M410.358,41.99v1.214h7.153V41.99H410.358z M410.358,45.271v1.249h7.153v-1.249H410.358z"/>
		<path fill="#49A500" d="M433.5,42.482c-0.621-2.297-0.851-5.184-0.884-7.119c0-2.428,0.263-6.005,0.951-9.975l5.118,0.688
			c-0.099,0.394-0.49,0.525-0.82,0.592c-0.72,2.69-1.278,7.415-1.147,9.284c0.624-1.442,1.706-3.281,2.462-4.461
			c0.425,0.755,1.376,2.1,1.867,2.624c-2.1,3.118-3.543,5.546-3.543,6.924c0,0.23,0.034,0.491,0.099,0.787L433.5,42.482z
			 M452.367,24.535c-0.031,0.393-0.295,0.624-0.82,0.786c0.263,2.593,0.557,6.956,0.557,11.125
			c-0.031,6.332-2.063,12.303-12.499,16.601c-0.56-0.852-2.101-2.493-2.953-3.28c8.991-3.478,10.895-8.794,10.895-13.256
			c0-4.561-0.428-9.153-0.789-12.206L452.367,24.535z"/>
		<path fill="#49A500" d="M489.951,28.538c-0.165,0.23-0.394,0.458-0.656,0.558c-2.92,12.304-8.826,19.457-19.589,23.592
			c-0.656-1.019-2-2.561-2.82-3.413c9.876-3.215,15.322-10.171,17.127-18.078h-19.721v-3.938h21.263l0.724-0.492L489.951,28.538z"/>
		<path fill="#49A500" d="M521.989,38.381h-7.121l0.131,10.5c0,3.511-2.034,3.971-7.447,3.971c-0.131-0.854-0.427-2.101-0.787-3.053
			h3.806c0.558-0.032,0.985-0.524,1.017-1.016l-0.066-7.58c-2.295,2.888-6.005,5.873-9.448,7.942
			c-0.56-0.823-1.443-1.871-2.297-2.495c3.774-1.935,7.416-4.922,10.008-8.269h-8.892v-3.247h10.565l-0.065-5.515l4.133,0.132
			c-0.032,0.296-0.229,0.559-0.755,0.624l0.066,4.759h7.153V38.381z"/>
		<path fill="#49A500" d="M531.813,35.854h27.399v4.135h-26.02c-0.194,0.328-0.656,0.557-1.116,0.624L531.813,35.854z"/>
		<path fill="#49A500" d="M590.691,52.293c-0.523-1.313-1.05-2.495-1.61-3.577c-7.183,0.82-16.239,1.542-21.097,1.771
			c-0.098,0.36-0.393,0.656-0.721,0.721l-1.378-4.889c0.95,0,2.099-0.032,3.38-0.064c2.004-6.104,4.759-15.456,6.302-21.721
			l5.28,1.344c-0.099,0.362-0.491,0.591-1.019,0.591c-1.605,5.547-4.1,13.388-6.232,19.622c3.872-0.166,10.138-0.623,13.584-0.985
			c-1.379-2.33-2.987-4.66-4.495-6.431l3.512-1.936c3.245,3.773,6.789,9.711,8.563,13.552L590.691,52.293z"/>
	</g>
</g>
</svg>
